<svg id="visual" viewBox="0 0 960 540" width="960" height="540" xmlns="http://www.w3.org/2000/svg" xmlns:xlink="http://www.w3.org/1999/xlink" version="1.1"><path d="M0 33L32 35.8C64 38.7 128 44.3 192 42.7C256 41 320 32 384 38.2C448 44.3 512 65.7 576 70.2C640 74.7 704 62.3 768 57C832 51.7 896 53.3 928 54.2L960 55L960 0L928 0C896 0 832 0 768 0C704 0 640 0 576 0C512 0 448 0 384 0C320 0 256 0 192 0C128 0 64 0 32 0L0 0Z" fill="#6198ff"></path><path d="M0 93L32 95.7C64 98.3 128 103.7 192 93.7C256 83.7 320 58.3 384 63.7C448 69 512 105 576 108.7C640 112.3 704 83.7 768 82C832 80.3 896 105.7 928 118.3L960 131L960 53L928 52.2C896 51.3 832 49.7 768 55C704 60.3 640 72.7 576 68.2C512 63.7 448 42.3 384 36.2C320 30 256 39 192 40.7C128 42.3 64 36.7 32 33.8L0 31Z" fill="#538eff"></path><path d="M0 190L32 200.8C64 211.7 128 233.3 192 244.2C256 255 320 255 384 239.7C448 224.3 512 193.7 576 198.2C640 202.7 704 242.3 768 250.5C832 258.7 896 235.3 928 223.7L960 212L960 129L928 116.3C896 103.7 832 78.3 768 80C704 81.7 640 110.3 576 106.7C512 103 448 67 384 61.7C320 56.3 256 81.7 192 91.7C128 101.7 64 96.3 32 93.7L0 91Z" fill="#4385ff"></path><path d="M0 255L32 261.3C64 267.7 128 280.3 192 289.3C256 298.3 320 303.7 384 283.8C448 264 512 219 576 215.3C640 211.7 704 249.3 768 260.2C832 271 896 255 928 247L960 239L960 210L928 221.7C896 233.3 832 256.7 768 248.5C704 240.3 640 200.7 576 196.2C512 191.7 448 222.3 384 237.7C320 253 256 253 192 242.2C128 231.3 64 209.7 32 198.8L0 188Z" fill="#337bff"></path><path d="M0 271L32 280.8C64 290.7 128 310.3 192 318.5C256 326.7 320 323.3 384 302.7C448 282 512 244 576 240.3C640 236.7 704 267.3 768 278.2C832 289 896 280 928 275.5L960 271L960 237L928 245C896 253 832 269 768 258.2C704 247.3 640 209.7 576 213.3C512 217 448 262 384 281.8C320 301.7 256 296.3 192 287.3C128 278.3 64 265.7 32 259.3L0 253Z" fill="#2071ff"></path><path d="M0 282L32 291.8C64 301.7 128 321.3 192 332.2C256 343 320 345 384 327C448 309 512 271 576 271.8C640 272.7 704 312.3 768 328.5C832 344.7 896 337.3 928 333.7L960 330L960 269L928 273.5C896 278 832 287 768 276.2C704 265.3 640 234.7 576 238.3C512 242 448 280 384 300.7C320 321.3 256 324.7 192 316.5C128 308.3 64 288.7 32 278.8L0 269Z" fill="#0066ff"></path><path d="M0 390L32 398C64 406 128 422 192 416.5C256 411 320 384 384 377.8C448 371.7 512 386.3 576 389.2C640 392 704 383 768 383C832 383 896 392 928 396.5L960 401L960 328L928 331.7C896 335.3 832 342.7 768 326.5C704 310.3 640 270.7 576 269.8C512 269 448 307 384 325C320 343 256 341 192 330.2C128 319.3 64 299.7 32 289.8L0 280Z" fill="#0061f1"></path><path d="M0 417L32 427.8C64 438.7 128 460.3 192 458.5C256 456.7 320 431.3 384 422.3C448 413.3 512 420.7 576 419.8C640 419 704 410 768 411.7C832 413.3 896 425.7 928 431.8L960 438L960 399L928 394.5C896 390 832 381 768 381C704 381 640 390 576 387.2C512 384.3 448 369.7 384 375.8C320 382 256 409 192 414.5C128 420 64 404 32 396L0 388Z" fill="#005ce3"></path><path d="M0 422L32 432.8C64 443.7 128 465.3 192 470.8C256 476.3 320 465.7 384 460.3C448 455 512 455 576 454C640 453 704 451 768 448.2C832 445.3 896 441.7 928 439.8L960 438L960 436L928 429.8C896 423.7 832 411.3 768 409.7C704 408 640 417 576 417.8C512 418.7 448 411.3 384 420.3C320 429.3 256 454.7 192 456.5C128 458.3 64 436.7 32 425.8L0 415Z" fill="#0056d6"></path><path d="M0 449L32 461.7C64 474.3 128 499.7 192 506C256 512.3 320 499.7 384 489.7C448 479.7 512 472.3 576 470.5C640 468.7 704 472.3 768 473.3C832 474.3 896 472.7 928 471.8L960 471L960 436L928 437.8C896 439.7 832 443.3 768 446.2C704 449 640 451 576 452C512 453 448 453 384 458.3C320 463.7 256 474.3 192 468.8C128 463.3 64 441.7 32 430.8L0 420Z" fill="#0051c8"></path><path d="M0 541L32 541C64 541 128 541 192 541C256 541 320 541 384 541C448 541 512 541 576 541C640 541 704 541 768 541C832 541 896 541 928 541L960 541L960 469L928 469.8C896 470.7 832 472.3 768 471.3C704 470.3 640 466.7 576 468.5C512 470.3 448 477.7 384 487.7C320 497.7 256 510.3 192 504C128 497.7 64 472.3 32 459.7L0 447Z" fill="#004cbb"></path></svg>